<?xml version="1.0" encoding="UTF-8" standalone="no"?>
<!-- Generator: Adobe Illustrator 19.0.0, SVG Export Plug-In . SVG Version: 6.00 Build 0)  -->

<svg
   xmlns:dc="http://purl.org/dc/elements/1.1/"
   xmlns:cc="http://creativecommons.org/ns#"
   xmlns:rdf="http://www.w3.org/1999/02/22-rdf-syntax-ns#"
   xmlns:svg="http://www.w3.org/2000/svg"
   xmlns="http://www.w3.org/2000/svg"
   xmlns:sodipodi="http://sodipodi.sourceforge.net/DTD/sodipodi-0.dtd"
   xmlns:inkscape="http://www.inkscape.org/namespaces/inkscape"
   version="1.1"
   id="Capa_1"
   x="0px"
   y="0px"
   viewBox="0 0 40.382998 40.382998"
   xml:space="preserve"
   sodipodi:docname="carro.svg"
   width="40.382999"
   height="40.382999"
   inkscape:version="0.92.3 (2405546, 2018-03-11)"><metadata
   id="metadata176"><rdf:RDF><cc:Work
       rdf:about=""><dc:format>image/svg+xml</dc:format><dc:type
         rdf:resource="http://purl.org/dc/dcmitype/StillImage" /></cc:Work></rdf:RDF></metadata><defs
   id="defs174" /><sodipodi:namedview
   pagecolor="#ffffff"
   bordercolor="#666666"
   borderopacity="1"
   objecttolerance="10"
   gridtolerance="10"
   guidetolerance="10"
   inkscape:pageopacity="0"
   inkscape:pageshadow="2"
   inkscape:window-width="1600"
   inkscape:window-height="900"
   id="namedview172"
   showgrid="false"
   inkscape:zoom="1.5440417"
   inkscape:cx="58.349043"
   inkscape:cy="-83.546986"
   inkscape:window-x="0"
   inkscape:window-y="0"
   inkscape:window-maximized="1"
   inkscape:current-layer="Capa_1" />
<g
   id="g139"
   transform="matrix(0.0959002,0,0,0.09223822,-0.80162977,0)"
   inkscape:export-xdpi="102.39"
   inkscape:export-ydpi="102.39"
   style="fill:#ffffff">
	<g
   id="g137"
   style="fill:#ffffff">
		<g
   id="g135"
   style="fill:#ffffff">
			<circle
   cx="152.033"
   cy="390.79199"
   r="47.02"
   id="circle129"
   style="fill:#ffffff" />
			<circle
   cx="350.56299"
   cy="390.79199"
   r="47.02"
   id="circle131"
   style="fill:#ffffff" />
			<path
   d="M 114.939,82.024 98.743,32.914 C 92.296,13.499 74.267,0.292 53.812,0 H 18.808 C 13.037,0 8.359,4.678 8.359,10.449 c 0,5.771 4.678,10.449 10.449,10.449 h 35.004 c 11.361,0.251 21.365,7.546 25.078,18.286 l 65.829,200.098 -4.702,12.016 c -5.729,14.98 -4.185,31.769 4.18,45.453 8.695,13.274 23.323,21.466 39.184,21.943 h 203.755 c 5.771,0 10.449,-4.678 10.449,-10.449 0,-5.771 -4.678,-10.449 -10.449,-10.449 H 183.38 c -8.797,-0.304 -16.849,-5.017 -21.42,-12.539 -4.932,-7.424 -5.908,-16.796 -2.612,-25.078 l 6.269,-15.674 c 0.942,-2.504 1.124,-5.23 0.522,-7.837 l -3.135,-7.837 212.637,-21.943 c 15.482,-1.393 28.327,-12.554 31.869,-27.69 l 21.943,-92.473 z"
   id="path133"
   inkscape:connector-curvature="0"
   style="fill:#ffffff" />
		</g>
	</g>
</g>
<g
   id="g141"
   transform="translate(-8.3590001,-94.976021)">
</g>
<g
   id="g143"
   transform="translate(-8.3590001,-94.976021)">
</g>
<g
   id="g145"
   transform="translate(-8.3590001,-94.976021)">
</g>
<g
   id="g147"
   transform="translate(-8.3590001,-94.976021)">
</g>
<g
   id="g149"
   transform="translate(-8.3590001,-94.976021)">
</g>
<g
   id="g151"
   transform="translate(-8.3590001,-94.976021)">
</g>
<g
   id="g153"
   transform="translate(-8.3590001,-94.976021)">
</g>
<g
   id="g155"
   transform="translate(-8.3590001,-94.976021)">
</g>
<g
   id="g157"
   transform="translate(-8.3590001,-94.976021)">
</g>
<g
   id="g159"
   transform="translate(-8.3590001,-94.976021)">
</g>
<g
   id="g161"
   transform="translate(-8.3590001,-94.976021)">
</g>
<g
   id="g163"
   transform="translate(-8.3590001,-94.976021)">
</g>
<g
   id="g165"
   transform="translate(-8.3590001,-94.976021)">
</g>
<g
   id="g167"
   transform="translate(-8.3590001,-94.976021)">
</g>
<g
   id="g169"
   transform="translate(-8.3590001,-94.976021)">
</g>
</svg>