<?xml version="1.0" encoding="UTF-8" standalone="no"?>
<!-- Generator: Adobe Illustrator 19.0.0, SVG Export Plug-In . SVG Version: 6.00 Build 0)  -->

<svg
   xmlns:dc="http://purl.org/dc/elements/1.1/"
   xmlns:cc="http://creativecommons.org/ns#"
   xmlns:rdf="http://www.w3.org/1999/02/22-rdf-syntax-ns#"
   xmlns:svg="http://www.w3.org/2000/svg"
   xmlns="http://www.w3.org/2000/svg"
   xmlns:sodipodi="http://sodipodi.sourceforge.net/DTD/sodipodi-0.dtd"
   xmlns:inkscape="http://www.inkscape.org/namespaces/inkscape"
   version="1.1"
   id="Capa_1"
   x="0px"
   y="0px"
   viewBox="0 0 40.525995 40.525999"
   xml:space="preserve"
   sodipodi:docname="carro.svg"
   width="40.525997"
   height="40.526001"
   inkscape:version="0.92.3 (2405546, 2018-03-11)"><metadata
   id="metadata163"><rdf:RDF><cc:Work
       rdf:about=""><dc:format>image/svg+xml</dc:format><dc:type
         rdf:resource="http://purl.org/dc/dcmitype/StillImage" /></cc:Work></rdf:RDF></metadata><defs
   id="defs161" /><sodipodi:namedview
   pagecolor="#ffffff"
   bordercolor="#666666"
   borderopacity="1"
   objecttolerance="10"
   gridtolerance="10"
   guidetolerance="10"
   inkscape:pageopacity="0"
   inkscape:pageshadow="2"
   inkscape:window-width="1600"
   inkscape:window-height="871"
   id="namedview159"
   showgrid="false"
   inkscape:zoom="0.92187137"
   inkscape:cx="-8.6134764"
   inkscape:cy="-195.25401"
   inkscape:window-x="0"
   inkscape:window-y="0"
   inkscape:window-maximized="1"
   inkscape:current-layer="Capa_1" />
<g
   id="g126"
   transform="matrix(0.08226863,0,0,0.07915185,-0.79785981,1.5488758e-5)"
   style="fill:#ffffff"
   inkscape:export-filename="/home/jesus/g126.png"
   inkscape:export-xdpi="48.200001"
   inkscape:export-ydpi="48.200001">
	<g
   id="g124"
   style="fill:#ffffff">
		<g
   id="g122"
   style="fill:#ffffff">
			<path
   d="m 194.59,382.711 c -35.646,0 -64.646,29 -64.646,64.646 0,35.646 29,64.646 64.646,64.646 35.646,0 64.646,-29 64.646,-64.646 0,-35.646 -29.001,-64.646 -64.646,-64.646 z m 0,90.504 c -14.261,0 -25.858,-11.597 -25.858,-25.858 0,-14.261 11.597,-25.858 25.858,-25.858 14.254,0 25.858,11.597 25.858,25.858 0,14.26 -11.597,25.858 -25.858,25.858 z"
   id="path116"
   inkscape:connector-curvature="0"
   style="fill:#ffffff" />
			<path
   d="m 385.941,382.711 c -35.646,0 -64.646,29 -64.646,64.646 0,35.646 29,64.646 64.646,64.646 35.646,0 64.646,-29 64.646,-64.646 0,-35.646 -29,-64.646 -64.646,-64.646 z m 0,90.504 c -14.261,0 -25.858,-11.597 -25.858,-25.858 0,-14.261 11.597,-25.858 25.858,-25.858 14.261,0 25.858,11.597 25.858,25.858 0,14.26 -11.597,25.858 -25.858,25.858 z"
   id="path118"
   inkscape:connector-curvature="0"
   style="fill:#ffffff" />
			<path
   d="m 498.088,126.274 c -3.685,-4.629 -9.27,-7.324 -15.179,-7.324 H 143.326 L 125.697,29.855 C 124.152,22.052 117.998,15.982 110.169,14.547 L 32.594,0.325 C 22.038,-1.621 11.953,5.368 10.02,15.905 8.087,26.442 15.062,36.546 25.6,38.479 l 64.607,11.843 56.914,287.667 c 1.797,9.083 9.768,15.631 19.025,15.631 h 271.512 c 9.031,0 16.86,-6.225 18.896,-15.037 l 45.252,-195.876 c 1.331,-5.76 -0.039,-11.811 -3.718,-16.433 z M 422.233,314.833 H 182.074 L 150.999,157.744 h 307.519 z"
   id="path120"
   inkscape:connector-curvature="0"
   style="fill:#ffffff" />
		</g>
	</g>
</g>
<g
   id="g128"
   transform="translate(-9.6982265,-20.220992)">
</g>
<g
   id="g130"
   transform="translate(-9.6982265,-20.220992)">
</g>
<g
   id="g132"
   transform="translate(-9.6982265,-20.220992)">
</g>
<g
   id="g134"
   transform="translate(-9.6982265,-20.220992)">
</g>
<g
   id="g136"
   transform="translate(-9.6982265,-20.220992)">
</g>
<g
   id="g138"
   transform="translate(-9.6982265,-20.220992)">
</g>
<g
   id="g140"
   transform="translate(-9.6982265,-20.220992)">
</g>
<g
   id="g142"
   transform="translate(-9.6982265,-20.220992)">
</g>
<g
   id="g144"
   transform="translate(-9.6982265,-20.220992)">
</g>
<g
   id="g146"
   transform="translate(-9.6982265,-20.220992)">
</g>
<g
   id="g148"
   transform="translate(-9.6982265,-20.220992)">
</g>
<g
   id="g150"
   transform="translate(-9.6982265,-20.220992)">
</g>
<g
   id="g152"
   transform="translate(-9.6982265,-20.220992)">
</g>
<g
   id="g154"
   transform="translate(-9.6982265,-20.220992)">
</g>
<g
   id="g156"
   transform="translate(-9.6982265,-20.220992)">
</g>
</svg>