<?xml version="1.0" encoding="UTF-8" standalone="no"?>
<svg
   xmlns:dc="http://purl.org/dc/elements/1.1/"
   xmlns:cc="http://creativecommons.org/ns#"
   xmlns:rdf="http://www.w3.org/1999/02/22-rdf-syntax-ns#"
   xmlns:svg="http://www.w3.org/2000/svg"
   xmlns="http://www.w3.org/2000/svg"
   xmlns:sodipodi="http://sodipodi.sourceforge.net/DTD/sodipodi-0.dtd"
   xmlns:inkscape="http://www.inkscape.org/namespaces/inkscape"
   height="384pt"
   viewBox="0 -21 384 384"
   width="384pt"
   version="1.1"
   id="svg65"
   sodipodi:docname="menu.svg"
   inkscape:version="0.92.3 (2405546, 2018-03-11)">
  <metadata
     id="metadata71">
    <rdf:RDF>
      <cc:Work
         rdf:about="">
        <dc:format>image/svg+xml</dc:format>
        <dc:type
           rdf:resource="http://purl.org/dc/dcmitype/StillImage" />
      </cc:Work>
    </rdf:RDF>
  </metadata>
  <defs
     id="defs69" />
  <sodipodi:namedview
     pagecolor="#ffffff"
     bordercolor="#666666"
     borderopacity="1"
     objecttolerance="10"
     gridtolerance="10"
     guidetolerance="10"
     inkscape:pageopacity="0"
     inkscape:pageshadow="2"
     inkscape:window-width="1600"
     inkscape:window-height="900"
     id="namedview67"
     showgrid="false"
     inkscape:zoom="1.3203125"
     inkscape:cx="256"
     inkscape:cy="256"
     inkscape:window-x="0"
     inkscape:window-y="0"
     inkscape:window-maximized="1"
     inkscape:current-layer="svg65" />
  <path
     d="m362.667969 0h-341.335938c-11.753906 0-21.332031 9.578125-21.332031 21.332031v42.667969c0 11.753906 9.578125 21.332031 21.332031 21.332031h341.335938c11.753906 0 21.332031-9.578125 21.332031-21.332031v-42.667969c0-11.753906-9.578125-21.332031-21.332031-21.332031zm0 0"
     id="path59"
     style="fill:#ffffff" />
  <path
     d="m362.667969 128h-341.335938c-11.753906 0-21.332031 9.578125-21.332031 21.332031v42.667969c0 11.753906 9.578125 21.332031 21.332031 21.332031h341.335938c11.753906 0 21.332031-9.578125 21.332031-21.332031v-42.667969c0-11.753906-9.578125-21.332031-21.332031-21.332031zm0 0"
     id="path61"
     style="fill:#ffffff" />
  <path
     d="m362.667969 256h-341.335938c-11.753906 0-21.332031 9.578125-21.332031 21.332031v42.667969c0 11.753906 9.578125 21.332031 21.332031 21.332031h341.335938c11.753906 0 21.332031-9.578125 21.332031-21.332031v-42.667969c0-11.753906-9.578125-21.332031-21.332031-21.332031zm0 0"
     id="path63"
     style="fill:#ffffff" />
</svg>
